<mxfile host="Electron" modified="2024-02-09T23:07:01.388Z" agent="Mozilla/5.0 (Windows NT 10.0; Win64; x64) AppleWebKit/537.36 (KHTML, like Gecko) draw.io/23.0.2 Chrome/120.0.6099.109 Electron/28.1.0 Safari/537.36" etag="boszUUH_16KIXBVefuA3" version="23.0.2" type="device">
  <diagram name="Page-1" id="8xv_V_38M1assi_OAAfK">
    <mxGraphModel dx="1434" dy="2005" grid="1" gridSize="10" guides="1" tooltips="1" connect="1" arrows="1" fold="1" page="1" pageScale="1" pageWidth="827" pageHeight="1169" math="0" shadow="0">
      <root>
        <mxCell id="0" />
        <mxCell id="1" parent="0" />
        <mxCell id="sLpo-41OvMuzTaKslNLJ-1" value="User" style="swimlane;childLayout=stackLayout;horizontal=1;startSize=50;horizontalStack=0;rounded=1;fontSize=14;fontStyle=0;strokeWidth=2;resizeParent=0;resizeLast=1;shadow=0;dashed=0;align=center;arcSize=4;whiteSpace=wrap;html=1;" parent="1" vertex="1">
          <mxGeometry x="320" y="-190" width="160" height="120" as="geometry" />
        </mxCell>
        <mxCell id="sLpo-41OvMuzTaKslNLJ-2" value="+ Name&amp;nbsp; &amp;nbsp; &amp;nbsp;[C,R]&lt;br&gt;+ Email&amp;nbsp; &amp;nbsp; &amp;nbsp; [R,U]&lt;br&gt;+ Address&amp;nbsp; [C,R]&lt;br&gt;+ Contact&amp;nbsp; &amp;nbsp;[R]" style="align=left;strokeColor=none;fillColor=none;spacingLeft=4;fontSize=12;verticalAlign=top;resizable=0;rotatable=0;part=1;html=1;" parent="sLpo-41OvMuzTaKslNLJ-1" vertex="1">
          <mxGeometry y="50" width="160" height="70" as="geometry" />
        </mxCell>
        <mxCell id="sLpo-41OvMuzTaKslNLJ-3" value="Pricing" style="swimlane;childLayout=stackLayout;horizontal=1;startSize=50;horizontalStack=0;rounded=1;fontSize=14;fontStyle=0;strokeWidth=2;resizeParent=0;resizeLast=1;shadow=0;dashed=0;align=center;arcSize=4;whiteSpace=wrap;html=1;" parent="1" vertex="1">
          <mxGeometry x="210" y="180" width="160" height="120" as="geometry" />
        </mxCell>
        <mxCell id="sLpo-41OvMuzTaKslNLJ-4" value="+ Plan&amp;nbsp; &amp;nbsp; &amp;nbsp; &amp;nbsp;[R,M]&lt;br&gt;+ Charges&amp;nbsp;&lt;br&gt;+ Benefits&amp;nbsp; [R,D]" style="align=left;strokeColor=none;fillColor=none;spacingLeft=4;fontSize=12;verticalAlign=top;resizable=0;rotatable=0;part=1;html=1;" parent="sLpo-41OvMuzTaKslNLJ-3" vertex="1">
          <mxGeometry y="50" width="160" height="70" as="geometry" />
        </mxCell>
        <mxCell id="sLpo-41OvMuzTaKslNLJ-5" value="Model" style="swimlane;childLayout=stackLayout;horizontal=1;startSize=50;horizontalStack=0;rounded=1;fontSize=14;fontStyle=0;strokeWidth=2;resizeParent=0;resizeLast=1;shadow=0;dashed=0;align=center;arcSize=4;whiteSpace=wrap;html=1;" parent="1" vertex="1">
          <mxGeometry x="70" y="-20" width="160" height="120" as="geometry" />
        </mxCell>
        <mxCell id="sLpo-41OvMuzTaKslNLJ-6" value="+ Name&amp;nbsp; &amp;nbsp; &amp;nbsp; &amp;nbsp; &amp;nbsp; &amp;nbsp; [R,U]&lt;br&gt;+ Usage&amp;nbsp; &amp;nbsp; &amp;nbsp; &amp;nbsp; &amp;nbsp; &amp;nbsp;[R]&lt;br&gt;+ Feature.&amp;nbsp; &amp;nbsp; &amp;nbsp; &amp;nbsp; [R,D]&lt;br&gt;+ Dependency. [C]" style="align=left;strokeColor=none;fillColor=none;spacingLeft=4;fontSize=12;verticalAlign=top;resizable=0;rotatable=0;part=1;html=1;" parent="sLpo-41OvMuzTaKslNLJ-5" vertex="1">
          <mxGeometry y="50" width="160" height="70" as="geometry" />
        </mxCell>
        <mxCell id="sLpo-41OvMuzTaKslNLJ-12" value="Evaluation" style="swimlane;childLayout=stackLayout;horizontal=1;startSize=50;horizontalStack=0;rounded=1;fontSize=14;fontStyle=0;strokeWidth=2;resizeParent=0;resizeLast=1;shadow=0;dashed=0;align=center;arcSize=4;whiteSpace=wrap;html=1;" parent="1" vertex="1">
          <mxGeometry x="540" y="410" width="160" height="110" as="geometry" />
        </mxCell>
        <mxCell id="sLpo-41OvMuzTaKslNLJ-13" value="+ Metric&amp;nbsp; &amp;nbsp; &amp;nbsp; &amp;nbsp; &amp;nbsp; &amp;nbsp; &amp;nbsp; [R,M]&lt;br&gt;+ Threshold&amp;nbsp; &amp;nbsp; &amp;nbsp; &amp;nbsp; [R]&lt;br&gt;+ Goal" style="align=left;strokeColor=none;fillColor=none;spacingLeft=4;fontSize=12;verticalAlign=top;resizable=0;rotatable=0;part=1;html=1;" parent="sLpo-41OvMuzTaKslNLJ-12" vertex="1">
          <mxGeometry y="50" width="160" height="60" as="geometry" />
        </mxCell>
        <mxCell id="sLpo-41OvMuzTaKslNLJ-14" value="Organization&amp;nbsp;" style="swimlane;childLayout=stackLayout;horizontal=1;startSize=50;horizontalStack=0;rounded=1;fontSize=14;fontStyle=0;strokeWidth=2;resizeParent=0;resizeLast=1;shadow=0;dashed=0;align=center;arcSize=4;whiteSpace=wrap;html=1;" parent="1" vertex="1">
          <mxGeometry x="140" y="410" width="160" height="120" as="geometry" />
        </mxCell>
        <mxCell id="sLpo-41OvMuzTaKslNLJ-15" value="+ Name&amp;nbsp; &amp;nbsp; &amp;nbsp;[C,R]&lt;br style=&quot;border-color: var(--border-color);&quot;&gt;+ Email&amp;nbsp; &amp;nbsp; &amp;nbsp; [R,U]&lt;br style=&quot;border-color: var(--border-color);&quot;&gt;+ Address&amp;nbsp; [C,R]&lt;br style=&quot;border-color: var(--border-color);&quot;&gt;+ Contact&amp;nbsp; &amp;nbsp;[R]" style="align=left;strokeColor=none;fillColor=none;spacingLeft=4;fontSize=12;verticalAlign=top;resizable=0;rotatable=0;part=1;html=1;" parent="sLpo-41OvMuzTaKslNLJ-14" vertex="1">
          <mxGeometry y="50" width="160" height="70" as="geometry" />
        </mxCell>
        <mxCell id="sLpo-41OvMuzTaKslNLJ-16" value="Rating" style="swimlane;childLayout=stackLayout;horizontal=1;startSize=50;horizontalStack=0;rounded=1;fontSize=14;fontStyle=0;strokeWidth=2;resizeParent=0;resizeLast=1;shadow=0;dashed=0;align=center;arcSize=4;whiteSpace=wrap;html=1;" parent="1" vertex="1">
          <mxGeometry x="570" y="-50" width="160" height="120" as="geometry" />
        </mxCell>
        <mxCell id="sLpo-41OvMuzTaKslNLJ-39" value="+ Value.&amp;nbsp; &amp;nbsp; &amp;nbsp; &amp;nbsp;&lt;br&gt;+ Comment&lt;br&gt;+ Source&amp;nbsp; &amp;nbsp; &amp;nbsp; [M]" style="align=left;strokeColor=none;fillColor=none;spacingLeft=4;fontSize=12;verticalAlign=top;resizable=0;rotatable=0;part=1;html=1;" parent="sLpo-41OvMuzTaKslNLJ-16" vertex="1">
          <mxGeometry y="50" width="160" height="70" as="geometry" />
        </mxCell>
        <mxCell id="sLpo-41OvMuzTaKslNLJ-18" value="Category" style="swimlane;childLayout=stackLayout;horizontal=1;startSize=50;horizontalStack=0;rounded=1;fontSize=14;fontStyle=0;strokeWidth=2;resizeParent=0;resizeLast=1;shadow=0;dashed=0;align=center;arcSize=4;whiteSpace=wrap;html=1;" parent="1" vertex="1">
          <mxGeometry x="430" y="180" width="160" height="120" as="geometry" />
        </mxCell>
        <mxCell id="sLpo-41OvMuzTaKslNLJ-19" value="+ Name&amp;nbsp; &amp;nbsp; &amp;nbsp; &amp;nbsp; &amp;nbsp; &amp;nbsp; [R]&lt;br&gt;+ Description&lt;br&gt;+ Tag" style="align=left;strokeColor=none;fillColor=none;spacingLeft=4;fontSize=12;verticalAlign=top;resizable=0;rotatable=0;part=1;html=1;" parent="sLpo-41OvMuzTaKslNLJ-18" vertex="1">
          <mxGeometry y="50" width="160" height="70" as="geometry" />
        </mxCell>
        <mxCell id="sLpo-41OvMuzTaKslNLJ-22" style="edgeStyle=orthogonalEdgeStyle;rounded=0;orthogonalLoop=1;jettySize=auto;html=1;exitX=0;exitY=0.25;exitDx=0;exitDy=0;entryX=1;entryY=0.5;entryDx=0;entryDy=0;endArrow=ERzeroToMany;endFill=0;startArrow=ERoneToMany;startFill=0;endSize=9;startSize=9;strokeWidth=2;" parent="1" source="sLpo-41OvMuzTaKslNLJ-2" target="sLpo-41OvMuzTaKslNLJ-6" edge="1">
          <mxGeometry relative="1" as="geometry" />
        </mxCell>
        <mxCell id="sLpo-41OvMuzTaKslNLJ-23" value="&lt;font style=&quot;font-size: 12px;&quot;&gt;Utilizes/&lt;br&gt;Utilized by&lt;/font&gt;" style="edgeLabel;html=1;align=center;verticalAlign=middle;resizable=0;points=[];" parent="sLpo-41OvMuzTaKslNLJ-22" vertex="1" connectable="0">
          <mxGeometry x="-0.0557" y="-1" relative="1" as="geometry">
            <mxPoint as="offset" />
          </mxGeometry>
        </mxCell>
        <mxCell id="sLpo-41OvMuzTaKslNLJ-27" style="edgeStyle=orthogonalEdgeStyle;rounded=0;orthogonalLoop=1;jettySize=auto;html=1;exitX=0.25;exitY=1;exitDx=0;exitDy=0;entryX=0;entryY=0.5;entryDx=0;entryDy=0;endArrow=ERoneToMany;endFill=0;startArrow=ERmandOne;startFill=0;endSize=9;startSize=9;strokeWidth=2;" parent="1" source="sLpo-41OvMuzTaKslNLJ-6" target="sLpo-41OvMuzTaKslNLJ-4" edge="1">
          <mxGeometry relative="1" as="geometry" />
        </mxCell>
        <mxCell id="sLpo-41OvMuzTaKslNLJ-28" value="&lt;font style=&quot;font-size: 12px;&quot;&gt;Contains/&lt;br&gt;Has&lt;/font&gt;" style="edgeLabel;html=1;align=center;verticalAlign=middle;resizable=0;points=[];" parent="sLpo-41OvMuzTaKslNLJ-27" vertex="1" connectable="0">
          <mxGeometry x="-0.3679" y="1" relative="1" as="geometry">
            <mxPoint as="offset" />
          </mxGeometry>
        </mxCell>
        <mxCell id="sLpo-41OvMuzTaKslNLJ-29" style="edgeStyle=orthogonalEdgeStyle;rounded=0;orthogonalLoop=1;jettySize=auto;html=1;exitX=0.75;exitY=1;exitDx=0;exitDy=0;entryX=0.5;entryY=0;entryDx=0;entryDy=0;endArrow=ERmandOne;endFill=0;startArrow=ERoneToMany;startFill=0;endSize=9;startSize=9;strokeWidth=2;" parent="1" source="sLpo-41OvMuzTaKslNLJ-6" target="sLpo-41OvMuzTaKslNLJ-18" edge="1">
          <mxGeometry relative="1" as="geometry" />
        </mxCell>
        <mxCell id="sLpo-41OvMuzTaKslNLJ-30" value="&lt;font style=&quot;font-size: 12px;&quot;&gt;Lies in/&lt;br&gt;Contains&lt;/font&gt;" style="edgeLabel;html=1;align=center;verticalAlign=middle;resizable=0;points=[];" parent="sLpo-41OvMuzTaKslNLJ-29" vertex="1" connectable="0">
          <mxGeometry x="-0.0376" y="2" relative="1" as="geometry">
            <mxPoint as="offset" />
          </mxGeometry>
        </mxCell>
        <mxCell id="sLpo-41OvMuzTaKslNLJ-31" style="edgeStyle=orthogonalEdgeStyle;rounded=0;orthogonalLoop=1;jettySize=auto;html=1;exitX=0;exitY=0.5;exitDx=0;exitDy=0;entryX=0;entryY=0.25;entryDx=0;entryDy=0;endArrow=ERoneToMany;endFill=0;startArrow=ERmandOne;startFill=0;endSize=9;startSize=9;strokeWidth=2;" parent="1" source="sLpo-41OvMuzTaKslNLJ-15" target="sLpo-41OvMuzTaKslNLJ-6" edge="1">
          <mxGeometry relative="1" as="geometry" />
        </mxCell>
        <mxCell id="sLpo-41OvMuzTaKslNLJ-32" value="&lt;font style=&quot;font-size: 12px;&quot;&gt;Create/&lt;br&gt;Made by&lt;/font&gt;" style="edgeLabel;html=1;align=center;verticalAlign=middle;resizable=0;points=[];" parent="sLpo-41OvMuzTaKslNLJ-31" vertex="1" connectable="0">
          <mxGeometry x="0.1197" y="-5" relative="1" as="geometry">
            <mxPoint as="offset" />
          </mxGeometry>
        </mxCell>
        <mxCell id="sLpo-41OvMuzTaKslNLJ-35" style="edgeStyle=orthogonalEdgeStyle;rounded=0;orthogonalLoop=1;jettySize=auto;html=1;exitX=0.5;exitY=0;exitDx=0;exitDy=0;endArrow=ERzeroToMany;endFill=0;startArrow=ERmandOne;startFill=0;endSize=9;startSize=9;strokeWidth=2;" parent="1" source="sLpo-41OvMuzTaKslNLJ-5" edge="1">
          <mxGeometry relative="1" as="geometry">
            <mxPoint x="659" y="-50" as="targetPoint" />
            <Array as="points">
              <mxPoint x="150" y="-240" />
              <mxPoint x="659" y="-240" />
            </Array>
          </mxGeometry>
        </mxCell>
        <mxCell id="sLpo-41OvMuzTaKslNLJ-36" value="&lt;font style=&quot;font-size: 12px;&quot;&gt;Got/&lt;br&gt;Received&lt;/font&gt;" style="edgeLabel;html=1;align=center;verticalAlign=middle;resizable=0;points=[];" parent="sLpo-41OvMuzTaKslNLJ-35" vertex="1" connectable="0">
          <mxGeometry x="0.014" y="2" relative="1" as="geometry">
            <mxPoint as="offset" />
          </mxGeometry>
        </mxCell>
        <mxCell id="sLpo-41OvMuzTaKslNLJ-38" style="edgeStyle=orthogonalEdgeStyle;rounded=0;orthogonalLoop=1;jettySize=auto;html=1;exitX=1;exitY=0.25;exitDx=0;exitDy=0;entryX=0;entryY=0.75;entryDx=0;entryDy=0;endArrow=ERzeroToMany;endFill=0;startArrow=ERmandOne;startFill=0;endSize=9;startSize=9;strokeWidth=2;" parent="1" source="sLpo-41OvMuzTaKslNLJ-2" target="sLpo-41OvMuzTaKslNLJ-16" edge="1">
          <mxGeometry relative="1" as="geometry" />
        </mxCell>
        <mxCell id="sLpo-41OvMuzTaKslNLJ-40" value="&lt;font style=&quot;font-size: 12px;&quot;&gt;Gave/&lt;br&gt;Received&lt;/font&gt;" style="edgeLabel;html=1;align=center;verticalAlign=middle;resizable=0;points=[];" parent="sLpo-41OvMuzTaKslNLJ-38" vertex="1" connectable="0">
          <mxGeometry x="-0.0212" y="-1" relative="1" as="geometry">
            <mxPoint as="offset" />
          </mxGeometry>
        </mxCell>
        <mxCell id="sLpo-41OvMuzTaKslNLJ-43" style="edgeStyle=orthogonalEdgeStyle;rounded=0;orthogonalLoop=1;jettySize=auto;html=1;exitX=1;exitY=0.25;exitDx=0;exitDy=0;entryX=0.19;entryY=-0.02;entryDx=0;entryDy=0;entryPerimeter=0;endArrow=ERoneToMany;endFill=0;startArrow=ERoneToMany;startFill=0;endSize=9;startSize=9;strokeWidth=2;" parent="1" source="sLpo-41OvMuzTaKslNLJ-13" target="sLpo-41OvMuzTaKslNLJ-5" edge="1">
          <mxGeometry relative="1" as="geometry">
            <mxPoint x="100" y="-30" as="targetPoint" />
            <Array as="points">
              <mxPoint x="750" y="475" />
              <mxPoint x="750" y="-290" />
              <mxPoint x="100" y="-290" />
            </Array>
          </mxGeometry>
        </mxCell>
        <mxCell id="sLpo-41OvMuzTaKslNLJ-44" value="&lt;font style=&quot;font-size: 12px;&quot;&gt;Achieved/&lt;br&gt;Completed&lt;/font&gt;" style="edgeLabel;html=1;align=center;verticalAlign=middle;resizable=0;points=[];" parent="sLpo-41OvMuzTaKslNLJ-43" vertex="1" connectable="0">
          <mxGeometry x="0.3511" y="-4" relative="1" as="geometry">
            <mxPoint as="offset" />
          </mxGeometry>
        </mxCell>
        <mxCell id="ilPIfU5XabV9He5IoTC2-1" value="&lt;b style=&quot;font-size: 14px;&quot;&gt;AI Models Recommendation System&lt;br&gt;Team Belhe, Chandrakar and Hivarekar&lt;br&gt;&lt;/b&gt;" style="text;html=1;strokeColor=none;fillColor=none;align=center;verticalAlign=middle;whiteSpace=wrap;rounded=0;" vertex="1" parent="1">
          <mxGeometry x="264" y="-420" width="300" height="60" as="geometry" />
        </mxCell>
      </root>
    </mxGraphModel>
  </diagram>
</mxfile>
